<svg xmlns="http://www.w3.org/2000/svg" viewBox="0 0 309 180" fill="none">
  <defs>
    <filter id="live-analytics-shadow" x="-6%" y="-25%" width="112%" height="160%" color-interpolation-filters="sRGB">
      <feDropShadow dx="0" dy="3" stdDeviation="4" flood-color="#1A1A1A" flood-opacity="0.06"/>
    </filter>
  </defs>
  <!-- back card -->
  <rect x="23.5" y="0.5" width="262" height="115" rx="23.5" fill="#fff" stroke="#EEE"/>
  <circle cx="64" cy="56" r="19" stroke="#E9ECF1" stroke-width="6"/>
  <circle cx="64" cy="56" r="19" stroke="#FDB827" stroke-width="6" stroke-linecap="round" stroke-dasharray="74.02 45.36" transform="rotate(-120 64 56)"/>
  <text x="126" y="55" font-family="Geist, Inter, Arial, sans-serif" font-size="26" font-weight="500" letter-spacing="-0.78" fill="#1A1A1A">1 248</text>
  <!-- front card -->
  <rect x="0.5" y="45.5" width="308" height="124" rx="26" fill="#fff" stroke="#EEE" filter="url(#live-analytics-shadow)"/>
  <circle cx="64" cy="107.5" r="34" stroke="#E9ECF1" stroke-width="8"/>
  <circle cx="64" cy="107.5" r="34" stroke="#4686FE" stroke-width="8" stroke-linecap="round" stroke-dasharray="149.54 64.09" transform="rotate(-90 64 107.5)"/>
  <circle cx="64" cy="107.5" r="17" fill="#659BFF" fill-opacity="0.1"/>
  <g transform="translate(55.6 99.1) scale(0.7)" stroke="#4686FE" stroke-width="2.2" stroke-linecap="round" stroke-linejoin="round">
    <path d="M12 3s6 6.6 6 11a6 6 0 0 1-12 0c0-4.4 6-11 6-11z"/>
  </g>
  <text x="126" y="105" font-family="Geist, Inter, Arial, sans-serif" font-size="26" font-weight="500" letter-spacing="-0.78" fill="#1A1A1A">128</text>
  <text x="126" y="130" font-family="Geist, Inter, Arial, sans-serif" font-size="17" fill="#605F5F">Buyurtma</text>
</svg>
