<svg xmlns="http://www.w3.org/2000/svg" viewBox="0 0 100 100">
  <defs>
    <linearGradient id="a3-bg" x1="0" y1="0" x2="0.35" y2="1">
      <stop offset="0" stop-color="#F6EEEA"/>
      <stop offset="1" stop-color="#E7D9D3"/>
    </linearGradient>
    <radialGradient id="a3-halo" cx="0.5" cy="0.42" r="0.5">
      <stop offset="0" stop-color="#fff" stop-opacity="0.65"/>
      <stop offset="1" stop-color="#fff" stop-opacity="0"/>
    </radialGradient>
    <radialGradient id="a3-skin" cx="0.42" cy="0.34" r="0.78">
      <stop offset="0" stop-color="#FBE0CB"/>
      <stop offset="0.6" stop-color="#F4CEB3"/>
      <stop offset="1" stop-color="#E1AD90"/>
    </radialGradient>
    <linearGradient id="a3-body" x1="0" y1="0" x2="0" y2="1">
      <stop offset="0" stop-color="#2E2F33"/>
      <stop offset="1" stop-color="#151517"/>
    </linearGradient>
    <linearGradient id="a3-hair" x1="0" y1="0" x2="1" y2="1">
      <stop offset="0" stop-color="#F1D79B"/>
      <stop offset="0.55" stop-color="#E1BC74"/>
      <stop offset="1" stop-color="#C09650"/>
    </linearGradient>
    <linearGradient id="a3-fs" x1="0" y1="0" x2="0" y2="1">
      <stop offset="0" stop-color="#2a1208" stop-opacity="0.2"/>
      <stop offset="1" stop-color="#2a1208" stop-opacity="0"/>
    </linearGradient>
    <linearGradient id="a3-side" x1="0" y1="0" x2="1" y2="0">
      <stop offset="0" stop-color="#2a1208" stop-opacity="0"/>
      <stop offset="0.55" stop-color="#2a1208" stop-opacity="0"/>
      <stop offset="1" stop-color="#2a1208" stop-opacity="0.13"/>
    </linearGradient>
    <clipPath id="a3-face"><path d="M34.5 39 C34.5 26 41 20.5 50 20.5 C59 20.5 65.5 26 65.5 39 C65.5 50 61.5 57 56 60.2 C53 62 47 62 44 60.2 C38.5 57 34.5 50 34.5 39 Z"/></clipPath>
    <clipPath id="a3-bodyclip"><path d="M5 100 C5 83 19 75.5 37 71.5 L39.5 70.5 L50 92 L60.5 70.5 L63 71.5 C81 75.5 95 83 95 100 Z"/></clipPath>
    
  </defs>
  <rect width="100" height="100" fill="url(#a3-bg)"/>
  <circle cx="50" cy="44" r="46" fill="url(#a3-halo)"/>
  
  
  <path d="M38 70.5 L50 92 L62 70.5 Z" fill="#F6F2EC"/>
  <path d="M5 100 C5 83 19 75.5 37 71.5 L39.5 70.5 L50 92 L60.5 70.5 L63 71.5 C81 75.5 95 83 95 100 Z" fill="url(#a3-body)"/>
  <path d="M39.5 70.5 L50 92 L40 88 L33 79 Z" fill="#3A3B40"/>
  <path d="M60.5 70.5 L50 92 L60 88 L67 79 Z" fill="#3A3B40"/>
  <ellipse cx="50" cy="72.5" rx="10.5" ry="4" fill="#000" opacity="0.16"/>
  
  <path d="M28.4 41 C26.2 22 37 11.8 50 11.8 C63 11.8 73.8 22 71.6 41 C72.2 52 73.8 63 77 75 C71 79.4 63.6 78 61.2 72 C61.6 65 62 57 62.6 49 L37.4 49 C38 57 38.4 65 38.8 72 C36.4 78 29 79.4 23 75 C26.2 63 27.8 52 28.4 41 Z" fill="url(#a3-hair)"/>
  <path d="M26.5 60 C27 66 25.5 70 24 73 M73.5 60 C73 66 74.5 70 76 73" fill="none" stroke="#F5E3B5" stroke-width="1.2" stroke-linecap="round" opacity="0.5"/>
  <path d="M44.2 50 L44.2 71 C44.2 73.8 55.8 73.8 55.8 71 L55.8 50 Z" fill="#E1AD90"/>
  <path d="M44.2 50 L44.2 71 C44.2 73.8 55.8 73.8 55.8 71 L55.8 50 Z" fill="url(#a3-skin)" opacity="0.55"/>
  <path d="M44.2 55 L55.8 55 L55.8 67 C53 69.5 47 69.5 44.2 67 Z" fill="#2a1208" opacity="0.15"/>
  <path d="M43.6 70 L50 82 L56.4 70 Z" fill="#E1AD90"/><path d="M43.6 70 L50 82 L56.4 70 Z" fill="#2a1208" opacity="0.1"/>
  <path d="M44.6 69 Q50 77 55.4 69" fill="none" stroke="#E6C46A" stroke-width="0.7" stroke-linecap="round"/><circle cx="50" cy="76.4" r="1.1" fill="#E6C46A"/>
  
  <path d="M34.5 39 C34.5 26 41 20.5 50 20.5 C59 20.5 65.5 26 65.5 39 C65.5 50 61.5 57 56 60.2 C53 62 47 62 44 60.2 C38.5 57 34.5 50 34.5 39 Z" fill="url(#a3-skin)"/>
  <g clip-path="url(#a3-face)">
    <rect x="30" y="20" width="40" height="20" fill="url(#a3-fs)"/>
    <rect x="30" y="20" width="40" height="44" fill="url(#a3-side)"/>
    <ellipse cx="40" cy="49.6" rx="4.4" ry="2.7" fill="#F08A86" opacity="0.26"/>
    <ellipse cx="60" cy="49.6" rx="4.4" ry="2.7" fill="#F08A86" opacity="0.26"/>
    
  </g>
  <g fill="none" stroke-linecap="round" stroke-linejoin="round">
    <path d="M39.4 35.9 Q43.2 33.7 47.2 35.3" stroke="#B58C4A" stroke-width="1.35"/>
    <path d="M52.8 35.3 Q56.8 33.7 60.6 35.9" stroke="#B58C4A" stroke-width="1.35"/>
    <path d="M41.4 40 Q43.5 38.6 45.6 40" stroke="#E1AD90" stroke-width="0.8" opacity="0.65"/>
    <path d="M54.4 40 Q56.5 38.6 58.6 40" stroke="#E1AD90" stroke-width="0.8" opacity="0.65"/>
    <path d="M50.7 43.4 C51.6 46 52 48 50.2 49.2 C49.5 49.6 48.7 49.5 48.1 49.2" stroke="#E1AD90" stroke-width="0.95" opacity="0.8"/>
    <path d="M45.6 54.1 Q50 57.9 54.4 54.1" stroke="#C9606A" stroke-width="1.7"/>
  </g>
  <ellipse cx="43.5" cy="41.2" rx="1.55" ry="1.95" fill="#2A2120"/>
  <ellipse cx="56.5" cy="41.2" rx="1.55" ry="1.95" fill="#2A2120"/>
  <circle cx="44.1" cy="40.5" r="0.5" fill="#fff" opacity="0.85"/>
  <circle cx="57.1" cy="40.5" r="0.5" fill="#fff" opacity="0.85"/>
  
  <path d="M32.6 44 C29.8 24 38.4 13 50.4 13 C62.4 13 70.4 24 67.4 44 C66.8 38 65.6 33 63 29.6 C57.6 32 49.6 31 44 27 C40.2 31 36.4 37 35.2 44 L32.6 44 Z" fill="url(#a3-hair)"/>
  <path d="M40 20 C46 15.4 56 15.4 62 20.6 M38.4 31 C41 27 44 25.2 46 24.6" fill="none" stroke="#F6E4B2" stroke-width="1.3" stroke-linecap="round" opacity="0.55"/>
  
</svg>
