<svg xmlns="http://www.w3.org/2000/svg" viewBox="0 0 100 100">
  <defs>
    <linearGradient id="a5-bg" x1="0" y1="0" x2="0.35" y2="1">
      <stop offset="0" stop-color="#FBF2E8"/>
      <stop offset="1" stop-color="#F0DFCE"/>
    </linearGradient>
    <radialGradient id="a5-halo" cx="0.5" cy="0.42" r="0.5">
      <stop offset="0" stop-color="#fff" stop-opacity="0.65"/>
      <stop offset="1" stop-color="#fff" stop-opacity="0"/>
    </radialGradient>
    <radialGradient id="a5-skin" cx="0.42" cy="0.34" r="0.78">
      <stop offset="0" stop-color="#F9DEC4"/>
      <stop offset="0.6" stop-color="#F1CBA8"/>
      <stop offset="1" stop-color="#DFAE8B"/>
    </radialGradient>
    <linearGradient id="a5-body" x1="0" y1="0" x2="0" y2="1">
      <stop offset="0" stop-color="#2F9AA6"/>
      <stop offset="1" stop-color="#1F7A89"/>
    </linearGradient>
    <linearGradient id="a5-hair" x1="0" y1="0" x2="1" y2="1">
      <stop offset="0" stop-color="#3A3E4C"/>
      <stop offset="0.55" stop-color="#1A1A1F"/>
      <stop offset="1" stop-color="#0F0F13"/>
    </linearGradient>
    <linearGradient id="a5-fs" x1="0" y1="0" x2="0" y2="1">
      <stop offset="0" stop-color="#2a1208" stop-opacity="0.2"/>
      <stop offset="1" stop-color="#2a1208" stop-opacity="0"/>
    </linearGradient>
    <linearGradient id="a5-side" x1="0" y1="0" x2="1" y2="0">
      <stop offset="0" stop-color="#2a1208" stop-opacity="0"/>
      <stop offset="0.55" stop-color="#2a1208" stop-opacity="0"/>
      <stop offset="1" stop-color="#2a1208" stop-opacity="0.13"/>
    </linearGradient>
    <clipPath id="a5-face"><path d="M34.5 39 C34.5 26 41 20.5 50 20.5 C59 20.5 65.5 26 65.5 39 C65.5 50 61.5 57 56 60.2 C53 62 47 62 44 60.2 C38.5 57 34.5 50 34.5 39 Z"/></clipPath>
    <clipPath id="a5-bodyclip"><path d="M4 100 C4 83 18 75.5 37 71.5 L40 70.5 L60 70.5 L63 71.5 C82 75.5 96 83 96 100 Z"/></clipPath>
    
  </defs>
  <rect width="100" height="100" fill="url(#a5-bg)"/>
  <circle cx="50" cy="44" r="46" fill="url(#a5-halo)"/>
  
  
  <path d="M4 100 C4 83 18 75.5 37 71.5 L40 70.5 L60 70.5 L63 71.5 C82 75.5 96 83 96 100 Z" fill="url(#a5-body)"/>
  <g clip-path="url(#a5-bodyclip)" stroke="#fff" stroke-width="1.1" opacity="0.17" fill="none">
    <path d="M14 100V80M20 100V78M26 100V76M32 100V74M38 100V74M62 100V74M68 100V74M74 100V76M80 100V78M86 100V80"/>
  </g>
  <path d="M4 100 C4 83 18 75.5 37 71.5 L30 80 C22 84 14 90 12 100 Z" fill="#fff" opacity="0.06"/>
  <ellipse cx="50" cy="72.5" rx="10.5" ry="4" fill="#000" opacity="0.16"/>
  
  <path d="M27.4 42 C25.4 21 36.6 11.6 50 11.6 C63.4 11.6 74.6 21 72.6 42 C73.2 52 72.6 59 70.2 65 C66 67.6 62 66 60.4 62.4 L39.6 62.4 C38 66 34 67.6 29.8 65 C27.4 59 26.8 52 27.4 42 Z" fill="url(#a5-hair)"/>
  <path d="M44.2 50 L44.2 71 C44.2 73.8 55.8 73.8 55.8 71 L55.8 50 Z" fill="#DFAE8B"/>
  <path d="M44.2 50 L44.2 71 C44.2 73.8 55.8 73.8 55.8 71 L55.8 50 Z" fill="url(#a5-skin)" opacity="0.55"/>
  <path d="M44.2 55 L55.8 55 L55.8 67 C53 69.5 47 69.5 44.2 67 Z" fill="#2a1208" opacity="0.15"/>
  
  
  <path d="M39.2 70.6 C43 76.6 57 76.6 60.8 70.6 L62.6 75 C58 82 42 82 37.4 75 Z" fill="#2A8896"/>
  <path d="M39.2 70.6 C43 76.6 57 76.6 60.8 70.6 L62.6 75 C58 82 42 82 37.4 75 Z" fill="none" stroke="#fff" stroke-width="0.5" opacity="0.2"/>
  <path d="M41 73.4 L40.2 78 M44.5 75.4 L44 80 M48 76.4 L48 81 M52 76.4 L52 81 M55.5 75.4 L56 80 M59 73.4 L59.8 78" stroke="#1A6D7B" stroke-width="0.8" stroke-linecap="round" opacity="0.7"/>
  
  <path d="M34.5 39 C34.5 26 41 20.5 50 20.5 C59 20.5 65.5 26 65.5 39 C65.5 50 61.5 57 56 60.2 C53 62 47 62 44 60.2 C38.5 57 34.5 50 34.5 39 Z" fill="url(#a5-skin)"/>
  <g clip-path="url(#a5-face)">
    <rect x="30" y="20" width="40" height="20" fill="url(#a5-fs)"/>
    <rect x="30" y="20" width="40" height="44" fill="url(#a5-side)"/>
    <ellipse cx="40" cy="49.6" rx="4.4" ry="2.7" fill="#EE8A83" opacity="0.26"/>
    <ellipse cx="60" cy="49.6" rx="4.4" ry="2.7" fill="#EE8A83" opacity="0.26"/>
    
  </g>
  <g fill="none" stroke-linecap="round" stroke-linejoin="round">
    <path d="M39.4 35.9 Q43.2 33.7 47.2 35.3" stroke="#0F0F13" stroke-width="1.35"/>
    <path d="M52.8 35.3 Q56.8 33.7 60.6 35.9" stroke="#0F0F13" stroke-width="1.35"/>
    <path d="M41.4 40 Q43.5 38.6 45.6 40" stroke="#DFAE8B" stroke-width="0.8" opacity="0.65"/>
    <path d="M54.4 40 Q56.5 38.6 58.6 40" stroke="#DFAE8B" stroke-width="0.8" opacity="0.65"/>
    <path d="M50.7 43.4 C51.6 46 52 48 50.2 49.2 C49.5 49.6 48.7 49.5 48.1 49.2" stroke="#DFAE8B" stroke-width="0.95" opacity="0.8"/>
    <path d="M45.6 54.1 Q50 57.9 54.4 54.1" stroke="#C45D63" stroke-width="1.7"/>
  </g>
  <ellipse cx="43.5" cy="41.2" rx="1.55" ry="1.95" fill="#2A2120"/>
  <ellipse cx="56.5" cy="41.2" rx="1.55" ry="1.95" fill="#2A2120"/>
  <circle cx="44.1" cy="40.5" r="0.5" fill="#fff" opacity="0.85"/>
  <circle cx="57.1" cy="40.5" r="0.5" fill="#fff" opacity="0.85"/>
  
  <path d="M32.4 46 C29.2 24 38.2 12.8 50 12.8 C61.8 12.8 70.8 24 67.6 46 C66.8 41 65.6 36.4 64 33 C58.6 35.2 52 33.6 47 30.4 C42 34 38 36.2 35.8 33 C34.2 36.4 33.2 41 32.4 46 Z" fill="url(#a5-hair)"/>
  <path d="M38 19.6 C43 15.2 55 15 62 20 M64 28 C63 25 62 23.4 61 22" fill="none" stroke="#4E5468" stroke-width="1.3" stroke-linecap="round" opacity="0.55"/>
  
</svg>
